<svg xmlns="http://www.w3.org/2000/svg" xmlns:xlink="http://www.w3.org/1999/xlink" width="500" zoomAndPan="magnify" viewBox="0 0 375 374.999991" height="500" preserveAspectRatio="xMidYMid meet" version="1.0"><defs><clipPath id="0c469737bc"><path d="M 111.097656 50.234375 L 337.597656 50.234375 L 337.597656 301 L 111.097656 301 Z M 111.097656 50.234375 " clip-rule="nonzero"/></clipPath></defs><rect x="-37.5" width="450" fill="#ffffff" y="-37.499999" height="449.999989" fill-opacity="1"/><rect x="-37.5" width="450" fill="#ffffff" y="-37.499999" height="449.999989" fill-opacity="1"/><g clip-path="url(#0c469737bc)"><path fill="#000000" d="M 164.558594 197.605469 C 164.089844 200.746094 163.683594 203.597656 163.238281 206.441406 C 160.476562 224.292969 157.914062 242.1875 153.6875 259.777344 C 151.523438 268.773438 148.996094 277.65625 145.167969 286.117188 C 144.222656 288.207031 143.125 290.226562 141.976562 292.214844 C 141.273438 293.429688 140.378906 294.542969 139.511719 295.65625 C 134.394531 302.234375 123.746094 301.96875 118.625 295.519531 C 116.199219 292.464844 114.519531 289.050781 113.484375 285.339844 C 111.648438 278.734375 111.085938 272.027344 112.285156 265.234375 C 112.488281 264.085938 112.832031 262.949219 113.222656 261.84375 C 113.800781 260.222656 115.019531 259.238281 116.671875 258.832031 C 118.300781 258.433594 119.957031 258.425781 121.585938 258.820312 C 123.140625 259.199219 124.199219 260.117188 124.46875 261.789062 C 124.582031 262.484375 124.765625 263.160156 124.9375 263.941406 C 124.101562 265.046875 122.804688 264.910156 121.410156 265.03125 C 121.238281 266.175781 120.992188 267.3125 120.90625 268.457031 C 120.390625 275.359375 121.042969 282.121094 123.699219 288.566406 C 124.5 290.503906 125.6875 292.296875 126.839844 294.0625 C 127.402344 294.921875 128.289062 295.566406 129.199219 296.480469 C 130.03125 295.683594 130.878906 295.105469 131.414062 294.3125 C 132.890625 292.121094 134.414062 289.933594 135.597656 287.582031 C 138.894531 281.035156 141.074219 274.0625 143.074219 267.035156 C 146.207031 256.042969 148.53125 244.867188 150.507812 233.617188 C 152.539062 222.023438 154.445312 210.410156 156.40625 198.804688 C 156.542969 197.992188 156.632812 197.175781 156.769531 196.171875 C 155.628906 196.171875 154.535156 196.117188 153.449219 196.183594 C 152.449219 196.242188 151.460938 196.433594 150.464844 196.558594 C 148.851562 196.757812 147.464844 197.421875 146.117188 198.339844 C 143.925781 199.824219 141.636719 201.171875 139.339844 202.484375 C 137.542969 203.507812 135.542969 203.757812 133.507812 203.507812 C 132.414062 203.375 131.113281 203.238281 130.726562 201.996094 C 130.316406 200.671875 131.476562 199.976562 132.351562 199.328125 C 134.742188 197.558594 137.492188 196.492188 140.242188 195.417969 C 141.269531 195.019531 142.300781 194.527344 143.167969 193.863281 C 148.132812 190.074219 153.042969 186.203125 158 182.394531 C 158.816406 181.769531 159.191406 181.035156 159.332031 180.046875 C 161.304688 166.058594 163.332031 152.078125 165.28125 138.089844 C 166.558594 128.933594 167.679688 119.761719 168.964844 110.609375 C 169.53125 106.589844 170.300781 102.601562 171.035156 98.609375 C 171.203125 97.691406 171.542969 96.796875 171.914062 95.933594 C 172.136719 95.410156 172.480469 94.878906 172.90625 94.5 C 174.941406 92.664062 179.320312 93.4375 180.320312 95.988281 C 181.328125 98.546875 182.128906 101.230469 182.644531 103.925781 C 184.632812 114.328125 186.523438 124.753906 188.355469 135.1875 C 189.503906 141.738281 190.484375 148.320312 191.546875 154.882812 C 191.582031 155.101562 191.640625 155.316406 191.730469 155.691406 C 192.257812 155.339844 192.703125 155.082031 193.109375 154.773438 C 218.652344 134.988281 244.214844 115.238281 269.71875 95.40625 C 283.539062 84.65625 297.21875 73.722656 311.03125 62.964844 C 315.257812 59.667969 319.679688 56.617188 324.078125 53.546875 C 326.199219 52.0625 328.410156 50.605469 331.089844 50.382812 C 332.476562 50.265625 333.898438 50.4375 335.289062 50.59375 C 335.78125 50.652344 336.289062 50.976562 336.6875 51.304688 C 337.59375 52.054688 337.5625 53.171875 336.496094 53.585938 C 332.382812 55.195312 329.382812 58.359375 326.042969 61.011719 C 311.957031 72.1875 298.109375 83.667969 283.894531 94.679688 C 266.042969 108.503906 247.945312 122.015625 229.917969 135.601562 C 218.238281 144.398438 206.484375 153.09375 194.765625 161.835938 C 194.109375 162.324219 193.457031 162.828125 192.757812 163.355469 C 193.121094 166.320312 193.492188 169.234375 193.832031 172.152344 C 194.496094 177.820312 195.152344 183.492188 195.796875 189.167969 C 196.597656 196.242188 197.34375 203.328125 198.1875 210.402344 C 198.867188 216.128906 199.640625 221.847656 200.402344 227.566406 C 200.519531 228.433594 200.789062 229.28125 200.996094 230.136719 C 201.546875 232.421875 202.1875 234.691406 202.625 236.992188 C 202.917969 238.546875 202.46875 239.097656 200.945312 239.601562 C 199.394531 240.113281 197.828125 240.09375 196.25 239.671875 C 195.050781 239.351562 194.277344 238.664062 194.03125 237.433594 C 193.582031 235.179688 193.128906 232.933594 192.667969 230.6875 C 192.546875 230.113281 192.457031 229.523438 192.253906 228.976562 C 188.179688 218.0625 181.664062 208.914062 172.308594 201.886719 C 170.53125 200.554688 168.5 199.546875 166.5625 198.429688 C 166.015625 198.097656 165.386719 197.929688 164.558594 197.605469 Z M 176.707031 105.175781 C 176.578125 105.160156 176.445312 105.148438 176.316406 105.132812 C 173.535156 128.144531 170.753906 151.15625 167.953125 174.335938 C 168.289062 174.128906 168.496094 174.03125 168.671875 173.894531 C 173.765625 169.886719 178.84375 165.867188 183.960938 161.886719 C 184.710938 161.300781 184.945312 160.699219 184.816406 159.78125 C 184.28125 156 183.832031 152.203125 183.289062 148.417969 C 182.179688 140.734375 181.050781 133.054688 179.886719 125.378906 C 178.859375 118.640625 177.769531 111.910156 176.707031 105.175781 Z M 165.132812 193.679688 C 175.484375 196.058594 183.078125 202.480469 189.929688 210.082031 C 188.535156 196.296875 187.460938 182.574219 185.839844 168.894531 C 185.539062 168.941406 185.398438 168.921875 185.316406 168.980469 C 179.273438 173.578125 173.226562 178.175781 167.207031 182.804688 C 166.839844 183.089844 166.554688 183.648438 166.484375 184.121094 C 166.011719 187.195312 165.605469 190.285156 165.132812 193.679688 Z M 157.699219 190.046875 C 156.339844 190.988281 155.214844 191.597656 154.382812 192.664062 C 155.433594 192.664062 156.347656 192.664062 157.355469 192.664062 C 157.464844 191.824219 157.5625 191.105469 157.699219 190.046875 Z M 157.699219 190.046875 " fill-opacity="1" fill-rule="nonzero"/></g></svg>